<?xml version="1.0" standalone="no"?>
<!DOCTYPE svg PUBLIC "-//W3C//DTD SVG 20010904//EN"
 "http://www.w3.org/TR/2001/REC-SVG-20010904/DTD/svg10.dtd">
<svg version="1.0" xmlns="http://www.w3.org/2000/svg"
 width="200.000000pt" height="200.000000pt" viewBox="0 0 200.000000 200.000000"
 preserveAspectRatio="xMidYMid meet">
<metadata>
Created by potrace 1.11, written by Peter Selinger 2001-2013
</metadata>
<g transform="translate(0.000000,200.000000) scale(0.100000,-0.100000)"
fill="#000000" stroke="none">
<path d="M0 1000 l0 -1000 995 0 995 0 0 1000 0 1000 -995 0 -995 0 0 -1000z
m1110 171 c161 -50 492 -149 553 -166 32 -9 57 -19 54 -21 -2 -2 -121 22 -263
55 -142 32 -304 69 -359 81 l-101 22 -159 -36 c-478 -108 -559 -126 -561 -123
-2 2 83 29 189 61 106 31 262 79 347 106 85 26 166 48 180 49 14 1 68 -12 120
-28z m235 -143 c192 -35 341 -64 332 -66 -10 -2 -104 6 -210 18 -106 11 -253
28 -327 36 -74 8 -160 13 -190 10 -30 -4 -178 -20 -329 -37 -151 -16 -286 -29
-300 -27 -20 2 598 122 659 127 8 1 172 -27 365 -61z m-1062 -75 c-7 -2 -21
-2 -30 0 -10 3 -4 5 12 5 17 0 24 -2 18 -5z m1460 0 c-7 -2 -21 -2 -30 0 -10
3 -4 5 12 5 17 0 24 -2 18 -5z m-1458 -78 c0 -5 -17 -8 -37 -7 -21 2 -38 -1
-38 -7 0 -5 17 -11 38 -13 29 -2 37 -7 37 -23 0 -17 -8 -20 -47 -23 -29 -2
-48 1 -48 7 0 6 18 11 41 11 24 0 38 4 34 10 -3 6 -22 10 -41 10 -26 0 -34 4
-34 18 0 10 3 22 7 26 11 10 88 3 88 -9z m115 5 c0 -5 -7 -10 -15 -10 -10 0
-15 -11 -15 -35 0 -19 -4 -35 -10 -35 -5 0 -10 16 -10 35 0 28 -4 35 -20 35
-11 0 -20 5 -20 10 0 6 20 10 45 10 25 0 45 -4 45 -10z m118 -35 c-3 -48 -8
-54 -28 -30 -7 8 -19 15 -26 15 -8 0 -14 -7 -14 -15 0 -8 -4 -15 -10 -15 -5 0
-10 20 -10 45 l0 45 45 0 46 0 -3 -45z m122 0 l0 -45 -45 0 -45 0 0 45 0 45
45 0 45 0 0 -45z m84 13 l26 -33 0 33 c0 17 5 32 10 32 6 0 10 -20 10 -45 0
-55 -14 -58 -52 -13 l-27 33 -1 -32 c0 -18 -4 -33 -10 -33 -5 0 -10 20 -10 45
0 55 17 59 54 13z m166 19 c0 -9 -11 -12 -35 -9 -32 4 -35 2 -35 -22 0 -21 5
-26 26 -26 22 0 25 2 14 15 -10 13 -9 15 9 15 16 0 21 -6 21 -25 0 -23 -4 -25
-45 -25 l-45 0 0 45 0 45 45 0 c30 0 45 -4 45 -13z m128 -34 c2 -26 -1 -43 -7
-43 -6 0 -11 7 -11 15 0 23 -67 20 -73 -2 -3 -10 -5 4 -6 30 l-1 48 48 -3 47
-3 3 -42z m122 23 c0 -14 -4 -27 -10 -31 -5 -3 -6 -13 -3 -23 6 -16 5 -16 -14
1 -24 21 -53 22 -53 2 0 -8 -4 -15 -10 -15 -5 0 -10 20 -10 45 l0 45 50 0 c46
0 50 -2 50 -24z m65 2 l16 -23 16 23 c26 37 43 28 43 -23 0 -25 -4 -45 -10
-45 -5 0 -10 17 -10 38 l0 37 -20 -25 -19 -25 -18 25 -18 25 -6 -40 -6 -40 -2
48 c-1 52 9 59 34 25z m218 15 c-19 -4 -23 -11 -25 -46 l-1 -42 -4 42 c-3 33
-8 43 -26 46 -12 2 1 4 28 4 28 0 40 -2 28 -4z m95 0 c-49 -5 -53 -32 -5 -35
l32 -1 -32 -4 c-46 -6 -43 -31 5 -36 l37 -4 -42 -1 -43 -2 0 45 0 45 43 -2 42
-1 -37 -4z m122 -2 c-42 -6 -45 -8 -45 -36 0 -28 3 -30 45 -36 l45 -7 -50 2
c-47 1 -50 3 -53 29 -6 49 3 57 55 55 l48 -1 -45 -6z m115 -31 c27 0 34 4 38
23 2 12 4 0 4 -28 0 -27 -2 -40 -4 -27 -4 18 -11 22 -38 22 -27 0 -34 -4 -38
-22 -2 -13 -4 0 -4 27 0 28 2 40 4 28 4 -19 11 -23 38 -23z"/>
<path d="M450 860 c0 -5 11 -10 25 -10 14 0 25 5 25 10 0 6 -11 10 -25 10 -14
0 -25 -4 -25 -10z"/>
<path d="M570 845 c0 -21 5 -25 30 -25 25 0 30 4 30 25 0 21 -5 25 -30 25 -25
0 -30 -4 -30 -25z"/>
<path d="M932 863 c2 -12 14 -19 36 -21 27 -3 32 0 32 17 0 17 -6 21 -36 21
-28 0 -35 -3 -32 -17z"/>
<path d="M1060 859 c0 -17 5 -20 32 -17 22 2 34 9 36 21 3 14 -4 17 -32 17
-30 0 -36 -4 -36 -21z"/>
</g>
</svg>
